<svg width="32" height="32" viewBox="0 0 32 32" fill="none" xmlns="http://www.w3.org/2000/svg">
<circle cx="16" cy="16" r="16" fill="#FFFCE9"/>
<path d="M17.9162 17.9501C18.4053 18.7486 19.0415 19.3355 20.1668 19.3355C21.1121 19.3355 21.7159 18.863 21.7159 18.2102C21.7159 17.4279 21.0955 17.1508 20.055 16.6957L19.4847 16.451C17.8384 15.7497 16.7447 14.871 16.7447 13.0136C16.7447 11.3025 18.0484 10 20.0858 10C21.5364 10 22.5792 10.5048 23.3306 11.8266L21.5541 12.9673C21.1629 12.266 20.741 11.9896 20.0858 11.9896C19.4176 11.9896 18.9941 12.4135 18.9941 12.9673C18.9941 13.6517 19.418 13.9288 20.3968 14.3527L20.9672 14.597C22.9056 15.4283 24 16.2757 24 18.1809C24 20.2349 22.3865 21.3602 20.2196 21.3602C18.1008 21.3602 16.732 20.3505 16.0622 19.0272L17.9162 17.9501ZM9.85708 18.1478C10.2155 18.7836 10.5415 19.3212 11.3253 19.3212C12.0749 19.3212 12.5477 19.028 12.5477 17.8877V10.1303H14.8291V17.9185C14.8291 20.2808 13.4441 21.356 11.4224 21.356C9.5958 21.356 8.53797 20.4107 8 19.2721L9.85708 18.1478Z" fill="black"/>
</svg>
