<svg width="32" height="32" viewBox="0 0 32 32" fill="none" xmlns="http://www.w3.org/2000/svg">
<circle cx="16" cy="16" r="16" fill="#EBF5FC"/>
<path fill-rule="evenodd" clip-rule="evenodd" d="M15.442 10.737H10.838C10.0696 10.737 9.3969 11.2015 9.18607 12.0855C8.94354 13.0979 8.93247 13.7299 9.18607 14.7876C9.37426 15.575 9.82308 16.1361 10.5914 16.1361H11.3291V14.9214C11.3291 13.6398 12.2559 13.0969 13.1525 13.0969H15.442V10.737ZM13.1203 8.03554C12.0013 8.23429 11.798 8.65041 11.798 9.41774V10.087H14.8311V8.0139C14.3893 8.01742 13.4927 7.96861 13.1203 8.03554ZM12.9 9.47963C12.7037 9.47963 12.5462 9.32113 12.5462 9.1249C12.5462 8.92866 12.7042 8.76916 12.9 8.76916C13.0952 8.76916 13.2532 8.92816 13.2532 9.1249C13.2532 9.32113 13.0952 9.48013 12.9 9.48013V9.47963Z" fill="#3498DB"/>
<path fill-rule="evenodd" clip-rule="evenodd" d="M14.349 13.0977H15.5184C16.2409 13.0977 16.5826 12.7344 16.5826 12.0058V9.47789C16.5826 8.75836 16.2168 8.33469 15.5179 8.12839C15.1063 8.00763 14.7697 8.02172 14.348 8.01367V13.0977" fill="#1378BA"/>
<path fill-rule="evenodd" clip-rule="evenodd" d="M13.2557 16.0435H17.8597C18.6281 16.0435 19.3008 15.5791 19.5116 14.695C19.7542 13.6822 19.7647 13.0497 19.5116 11.993C19.3235 11.2051 18.8746 10.6445 18.1063 10.6445H17.3686V11.8592C17.3686 13.1402 16.4418 13.6837 15.5452 13.6837H13.2557V16.0435ZM15.5774 18.7445C16.6964 18.5463 16.8997 18.1297 16.8997 17.3623V16.6931H13.8666V18.7662C14.3084 18.7627 15.205 18.8115 15.5774 18.745V18.7445ZM15.7988 17.3005C15.9935 17.3005 16.151 17.4589 16.151 17.6557C16.151 17.8519 15.9935 18.0114 15.7988 18.0114C15.6025 18.0114 15.4445 17.8519 15.4445 17.6557C15.4445 17.4595 15.6025 17.2999 15.7982 17.2999L15.7988 17.3005Z" fill="#3498DB"/>
<path fill-rule="evenodd" clip-rule="evenodd" d="M14.3204 13.6836H13.1792C12.4562 13.6836 12.1145 14.0469 12.1145 14.7745V17.3029C12.1145 18.0224 12.4803 18.4461 13.1792 18.6524C13.5903 18.7731 13.8987 18.7596 14.3204 18.7681V13.6836Z" fill="#1378BA"/>
<path d="M18.374 23.9999C20.5971 23.9999 22.3993 22.1977 22.3993 19.9746C22.3993 17.7514 20.5971 15.9492 18.374 15.9492C16.1508 15.9492 14.3486 17.7514 14.3486 19.9746C14.3486 22.1977 16.1508 23.9999 18.374 23.9999Z" fill="white" stroke="#1478BA"/>
<path fill-rule="evenodd" clip-rule="evenodd" d="M19.8835 21.9311H16.8876V21.282L18.2683 19.8319C18.451 19.6236 18.5818 19.4444 18.6608 19.2965C18.7388 19.1476 18.778 19.0188 18.778 18.9091C18.778 18.7239 18.7378 18.583 18.6573 18.4864C18.5768 18.3908 18.4595 18.3425 18.3066 18.3425C18.2296 18.3425 18.1606 18.3596 18.0972 18.3938C18.0343 18.429 17.9805 18.4763 17.9362 18.5372C17.8919 18.5986 17.8577 18.6696 17.8331 18.7511C17.8079 18.8331 17.7958 18.9221 17.7958 19.0178H16.7996C16.7996 18.8215 16.8363 18.6353 16.9103 18.4607C16.9837 18.2861 17.0879 18.1327 17.2222 18.0008C17.3571 17.869 17.5181 17.7654 17.7053 17.6899C17.8934 17.6144 18.1013 17.5762 18.3292 17.5762C18.5672 17.5762 18.776 17.6043 18.9561 17.6602C19.1358 17.7166 19.2867 17.7976 19.409 17.9037C19.5298 18.0104 19.6223 18.1402 19.6842 18.2947C19.7456 18.4492 19.7768 18.6243 19.7768 18.821C19.7768 18.9705 19.7532 19.1129 19.7064 19.2502C19.6586 19.3861 19.5906 19.5229 19.5026 19.6578C19.4135 19.7936 19.3053 19.9325 19.1775 20.0739C19.0497 20.2158 18.9058 20.3657 18.7473 20.5252L18.1923 21.1643H19.8815V21.9316L19.8835 21.9311Z" fill="#FF2C00"/>
</svg>
